<?xml version="1.0"?>
<svg width="1024" height="768" xmlns="http://www.w3.org/2000/svg" xmlns:svg="http://www.w3.org/2000/svg">
 <!-- Created with SVG-edit - http://svg-edit.googlecode.com/ -->
 <g>
  <g id="svg_2">
   <path fill="#FF0000" stroke="#000000" stroke-width="5" d="m430.390564,189.499664l0,0c0,-41.144989 33.354858,-74.499847 74.5,-74.499847l0,0c19.758911,0 38.708496,7.849091 52.679504,21.820587c13.971497,13.971497 21.820618,32.920944 21.820618,52.679245l0,0c0,41.145554 -33.354614,74.500168 -74.500122,74.500168l0,0c-41.145142,0 -74.5,-33.354614 -74.5,-74.500168l0,0.000031l0,-0.000015zm120.300659,33.327545l0,0c16.402466,-22.541992 13.964233,-53.667206 -5.748352,-73.379547c-19.712646,-19.712509 -50.837891,-22.150688 -73.379303,-5.748077l79.127655,79.127655l0,0l0,-0.000031zm-91.600861,-66.654373c-16.402588,22.541824 -13.964447,53.667068 5.748047,73.37915c19.712494,19.71257 50.837738,22.150757 73.379059,5.748352l-79.127136,-79.127502l0.000031,0z" id="svg_1"/>
  </g>
  <text transform="matrix(1,0,0,1,0,0) " font-weight="bold" xml:space="preserve" text-anchor="middle" font-family="serif" font-size="32" id="svg_3" y="326.888916" x="504.888916" stroke-width="0" stroke="#000000" fill="#000000">Невозможно отобразить мнемосхему объекта.</text>
  <text transform="matrix(1,0,0,1,0,0) " xml:space="preserve" text-anchor="middle" font-family="serif" font-size="24" id="svg_4" y="366.888916" x="504.888916" stroke-width="0" stroke="#000000" fill="#000000">Возможно, причина в том, что не заполнены следующие свойства в паспорте объекта:</text>
  <text transform="matrix(1,0,0,1,0,0) " xml:space="preserve" text-anchor="middle" font-family="serif" font-size="24" id="svg_5" y="409.888916" x="504.888916" stroke-width="0" stroke="#000000" fill="#000000">«Схема подключения ГВС»</text>
  <text transform="matrix(1,0,0,1,0,0) " xml:space="preserve" text-anchor="middle" font-family="serif" font-size="24" id="svg_6" y="449.777832" x="504.888916" stroke-width="0" stroke="#000000" fill="#000000">«Схема подключения ЦО»</text>
  <text xml:space="preserve" text-anchor="middle" font-family="serif" font-size="24" id="svg_7" y="489.777832" x="504.888916" stroke-width="0" stroke="#000000" fill="#000000">«Зонность ЦТП»</text>
  <text xml:space="preserve" text-anchor="middle" font-family="serif" font-size="24" id="svg_8" y="528.777832" x="504.888916" stroke-width="0" stroke="#000000" fill="#000000">«Схема подключения насосов ГВС»</text>
  <text xml:space="preserve" text-anchor="middle" font-family="serif" font-size="24" id="svg_9" y="569.777832" x="504.888916" stroke-width="0" stroke="#000000" fill="#000000">«Схема подключения насосов ХВС»</text>
 </g>
</svg>